<svg width="14" height="14" viewBox="0 0 14 14" fill="none" xmlns="http://www.w3.org/2000/svg">
<path d="M0.327912 13.6742C-0.109304 13.2398 -0.109304 12.5355 0.327912 12.1011L11.9388 0.564835C12.376 0.130429 13.0848 0.130429 13.5221 0.564835C13.9593 0.99924 13.9593 1.70355 13.5221 2.13796L1.91121 13.6742C1.47399 14.1086 0.765127 14.1086 0.327912 13.6742Z" fill="#131313"/>
<path d="M13.6721 13.4352C14.1093 13.0008 14.1093 12.2964 13.6721 11.862L2.06124 0.325804C1.62402 -0.108601 0.915157 -0.108602 0.477941 0.325804C0.0407258 0.76021 0.0407256 1.46452 0.477941 1.89893L12.0888 13.4352C12.526 13.8696 13.2349 13.8696 13.6721 13.4352Z" fill="#131313"/>
</svg>
