<svg width="10" height="19" viewBox="0 0 10 19" fill="none" xmlns="http://www.w3.org/2000/svg">
<path d="M1.69809 18.9457C1.59045 18.8871 1.50101 18.7839 1.44387 18.6524C1.38672 18.521 1.36514 18.3687 1.38251 18.2197L4.19161 10.1787H0.540107C0.459569 10.1815 0.37961 10.1604 0.306399 10.117C0.233187 10.0736 0.168681 10.0091 0.117857 9.92842C0.0670328 9.84777 0.0312493 9.75314 0.0132674 9.65182C-0.00471439 9.5505 -0.00441383 9.4452 0.0141457 9.34405L3.81425 0.522736C3.84202 0.370921 3.90948 0.236082 4.00527 0.140918C4.10107 0.0457532 4.21935 -0.00392614 4.34021 0.000242526H8.11835C8.19692 -0.000102165 8.27456 0.0222712 8.34555 0.0657186C8.41655 0.109166 8.47909 0.172583 8.5286 0.251311C8.5788 0.330927 8.61435 0.424199 8.63257 0.524104C8.65079 0.624009 8.65121 0.727946 8.63379 0.828089L5.74074 6.58973L9.48145 6.48731C9.58003 6.48705 9.67667 6.52254 9.76037 6.58973C9.84407 6.65692 9.91144 6.7531 9.95482 6.8673C9.99251 6.97692 10.007 7.09746 9.99685 7.21665C9.98668 7.33585 9.95222 7.44944 9.89696 7.54587L2.31872 18.7014C2.27251 18.7898 2.21081 18.8629 2.13862 18.9148C2.06643 18.9666 1.98578 18.9958 1.90321 19C1.83283 18.9983 1.7633 18.9799 1.69809 18.9457Z" fill="#D50005"/>
</svg>
