<svg width="18" height="36" viewBox="0 0 18 36" fill="none" xmlns="http://www.w3.org/2000/svg">
<path d="M3.05656 35.8971C2.86281 35.7861 2.70181 35.5906 2.59896 35.3415C2.4961 35.0924 2.45724 34.8039 2.48852 34.5214L7.5449 19.2859H0.972193C0.827225 19.2912 0.683298 19.2512 0.551517 19.169C0.419737 19.0868 0.303626 18.9646 0.212143 18.8118C0.120659 18.6589 0.0562487 18.4796 0.0238814 18.2877C-0.00848589 18.0957 -0.0079449 17.8962 0.0254623 17.7045L6.86565 0.990447C6.91563 0.702798 7.03706 0.447314 7.20949 0.267002C7.38192 0.0866903 7.59483 -0.007439 7.81238 0.000459523H14.613C14.7545 -0.000193575 14.8942 0.042198 15.022 0.124519C15.1498 0.206841 15.2624 0.327 15.3515 0.476168C15.4418 0.62702 15.5058 0.803745 15.5386 0.99304C15.5714 1.18233 15.5722 1.37927 15.5408 1.56901L10.3333 12.4858L17.0666 12.2917C17.244 12.2913 17.418 12.3585 17.5687 12.4858C17.7193 12.6131 17.8406 12.7953 17.9187 13.0117C17.9865 13.2194 18.0126 13.4478 17.9943 13.6737C17.976 13.8995 17.914 14.1147 17.8145 14.2974L4.1737 35.4343C4.09052 35.6017 3.97946 35.7402 3.84951 35.8385C3.71957 35.9368 3.57441 35.9921 3.42578 36C3.2991 35.9968 3.17394 35.9619 3.05656 35.8971Z" fill="#D0D0D0"/>
</svg>
