<svg width="28" height="28" viewBox="0 0 28 28" fill="none" xmlns="http://www.w3.org/2000/svg">
<path d="M27 27L18.3333 18.3333L27 27ZM21.2222 11.1111C21.2222 12.4389 20.9607 13.7537 20.4526 14.9805C19.9444 16.2072 19.1996 17.3218 18.2607 18.2607C17.3218 19.1996 16.2072 19.9444 14.9805 20.4526C13.7537 20.9607 12.4389 21.2222 11.1111 21.2222C9.7833 21.2222 8.46849 20.9607 7.24176 20.4526C6.01502 19.9444 4.90038 19.1996 3.96148 18.2607C3.02257 17.3218 2.27779 16.2072 1.76966 14.9805C1.26153 13.7537 1 12.4389 1 11.1111C1 8.42948 2.06527 5.85768 3.96148 3.96148C5.85768 2.06527 8.42948 1 11.1111 1C13.7927 1 16.3645 2.06527 18.2607 3.96148C20.1569 5.85768 21.2222 8.42948 21.2222 11.1111Z" stroke="white" stroke-width="2" stroke-linecap="round" stroke-linejoin="round"/>
</svg>
