<svg width="8" height="8" viewBox="0 0 8 8" fill="none" xmlns="http://www.w3.org/2000/svg">
<path d="M0.341673 7.85873C0.152972 7.67036 0.152972 7.36496 0.341673 7.17659L7.17513 0.355265C7.36383 0.1669 7.66977 0.1669 7.85847 0.355265C8.04718 0.543631 8.04718 0.849032 7.85847 1.0374L1.02502 7.85873C0.836318 8.04709 0.530373 8.04709 0.341673 7.85873Z" fill="#7A7A7A"/>
<path d="M0.141525 0.141274C0.330226 -0.0470914 0.63617 -0.0470914 0.824871 0.141274L7.65833 6.9626C7.84703 7.15097 7.84703 7.45637 7.65833 7.64473C7.46963 7.8331 7.16368 7.8331 6.97498 7.64473L0.141526 0.823407C-0.0471751 0.635041 -0.0471752 0.32964 0.141525 0.141274Z" fill="#7A7A7A"/>
</svg>
